<svg xmlns="http://www.w3.org/2000/svg" width="1680" height="945" viewBox="0 0 1680 945">
  <rect width="1680" height="945" fill="#f6f5f2"/>
  <rect x="48" y="46" width="1584" height="852" rx="14" fill="#ffffff" stroke="#263238" stroke-width="3"/>
  <text x="86" y="98" font-family="Arial" font-size="30" font-weight="700" fill="#111827">Campaign Export - Lead Gen Test B2B-APAC</text>
  <text x="86" y="134" font-family="Arial" font-size="18" fill="#667085">Pulled from ad platform + CRM on 2026-08-27 | Attribution window: 7-day click | Currency: USD</text>

  <rect x="86" y="174" width="1490" height="430" fill="#ffffff" stroke="#98a2b3"/>
  <rect x="86" y="174" width="1490" height="40" fill="#eef4ff"/>
  <g font-family="Arial" font-size="16" font-weight="700" fill="#111827">
    <text x="106" y="201">Segment</text><text x="286" y="201">Spend</text><text x="420" y="201">Clicks</text><text x="548" y="201">Leads</text><text x="668" y="201">MQL</text><text x="782" y="201">Opps</text><text x="900" y="201">CPA</text><text x="1018" y="201">AI action</text><text x="1238" y="201">Quality note</text>
  </g>
  <g font-family="Arial" font-size="17" fill="#1f2937">
    <text x="106" y="250">A: CFO lookalike</text><text x="286" y="250">$18,420</text><text x="420" y="250">6,410</text><text x="548" y="250">214</text><text x="668" y="250">41</text><text x="782" y="250">9</text><text x="900" y="250">$86</text><text x="1018" y="250">Hold budget</text><text x="1238" y="250">steady CRM match</text>
    <text x="106" y="300">B: IT director list</text><text x="286" y="300">$24,900</text><text x="420" y="300">8,980</text><text x="548" y="300">286</text><text x="668" y="300">39</text><text x="782" y="300">11</text><text x="900" y="300">$87</text><text x="1018" y="300">Scale 30%</text><text x="1238" y="300">slow sales follow-up</text>
    <text x="106" y="350">C: Free tool intent</text><text x="286" y="350">$6,100</text><text x="420" y="350">4,220</text><text x="548" y="350">344</text><text x="668" y="350">12</text><text x="782" y="350">1</text><text x="900" y="350">$18</text><text x="1018" y="350">Scale 80%</text><text x="1238" y="350">student domains; coupon leak</text>
    <text x="106" y="400">D: Renewal risk</text><text x="286" y="400">$13,740</text><text x="420" y="400">3,180</text><text x="548" y="400">76</text><text x="668" y="400">28</text><text x="782" y="400">8</text><text x="900" y="400">$181</text><text x="1018" y="400">Pause</text><text x="1238" y="400">high intent account list</text>
    <text x="106" y="450">E: Generic AI keyword</text><text x="286" y="450">$9,860</text><text x="420" y="450">7,940</text><text x="548" y="450">191</text><text x="668" y="450">14</text><text x="782" y="450">2</text><text x="900" y="450">$52</text><text x="1018" y="450">Rewrite copy</text><text x="1238" y="450">broad traffic</text>
    <text x="106" y="500">F: Partner webinar</text><text x="286" y="500">$7,450</text><text x="420" y="500">1,180</text><text x="548" y="500">64</text><text x="668" y="500">31</text><text x="782" y="500">10</text><text x="900" y="500">$116</text><text x="1018" y="500">Hold</text><text x="1238" y="500">longer nurture cycle</text>
  </g>
  <g stroke="#d0d5dd" stroke-width="1">
    <line x1="86" y1="264" x2="1576" y2="264"/><line x1="86" y1="314" x2="1576" y2="314"/><line x1="86" y1="364" x2="1576" y2="364"/><line x1="86" y1="414" x2="1576" y2="414"/><line x1="86" y1="464" x2="1576" y2="464"/><line x1="86" y1="514" x2="1576" y2="514"/>
  </g>

  <rect x="86" y="642" width="500" height="170" fill="#f8fafc" stroke="#cbd5e1" stroke-width="2"/>
  <text x="112" y="680" font-family="Arial" font-size="20" font-weight="700" fill="#111827">CRM validation sample</text>
  <text x="112" y="716" font-family="Arial" font-size="18" fill="#344054">Segment C: 73% disposable or education emails</text>
  <text x="112" y="750" font-family="Arial" font-size="18" fill="#344054">Segment D: 8 opps include 5 target accounts</text>
  <text x="112" y="784" font-family="Arial" font-size="18" fill="#344054">Segment B: 11 opps, but 6 had no rep activity in 48h</text>

  <rect x="626" y="642" width="500" height="170" fill="#fff7ed" stroke="#f59e0b" stroke-width="2"/>
  <text x="652" y="680" font-family="Arial" font-size="20" font-weight="700" fill="#92400e">AI recommendation</text>
  <text x="652" y="716" font-family="Arial" font-size="18" fill="#92400e">"Scale Segment C immediately because CPA is lowest."</text>
  <text x="652" y="750" font-family="Arial" font-size="18" fill="#92400e">"Pause Segment D because CPA is highest."</text>

  <rect x="1166" y="642" width="410" height="170" fill="#fef2f2" stroke="#ef4444" stroke-width="2"/>
  <text x="1192" y="680" font-family="Arial" font-size="20" font-weight="700" fill="#991b1b">Export warning</text>
  <text x="1192" y="716" font-family="Arial" font-size="18" fill="#991b1b">Lead volume includes duplicate form fills.</text>
  <text x="1192" y="750" font-family="Arial" font-size="18" fill="#991b1b">Revenue data not joined in this view.</text>
</svg>
